# xmcd CD database file
#
# Track frame offsets:
#	150
#	33833
#	68552
#	101474
#	139985
#	162077
#	211331
#	234737
#
# Disc length: 3563 seconds
#
# Revision: 0
# Processed by: cddbd v1.5.2PL0 Copyright (c) Steve Scherf et al.
# Submitted via: CDex 1.51
#
DISCID=650de908
DTITLE=Kelly Jefferson Quartet - Spark
DYEAR=2005
DGENRE=Jazz
TTITLE0=Contingency Plan
TTITLE1=Rainwater Motivational
TTITLE2=June Tune
TTITLE3=Too Close To Call
TTITLE4=Short Order
TTITLE5=Waking Moment
TTITLE6=Songsmith
TTITLE7=Smirk
EXTD=YEAR: 2005
EXTT0=
EXTT1=
EXTT2=
EXTT3=
EXTT4=
EXTT5=
EXTT6=
EXTT7=
PLAYORDER=
